<?xml version="1.0" standalone="no"?>
<!DOCTYPE svg PUBLIC "-//W3C//DTD SVG 20010904//EN"
 "http://www.w3.org/TR/2001/REC-SVG-20010904/DTD/svg10.dtd">
<svg version="1.0" xmlns="http://www.w3.org/2000/svg"
 width="192.000000pt" height="192.000000pt" viewBox="0 0 192.000000 192.000000"
 preserveAspectRatio="xMidYMid meet">
<metadata>
Created by potrace 1.15, written by Peter Selinger 2001-2017
</metadata>
<g transform="translate(0.000000,192.000000) scale(0.100000,-0.100000)"
fill="#000000" stroke="none">
<path d="M0 960 l0 -960 960 0 960 0 0 960 0 960 -960 0 -960 0 0 -960z m1020
611 c0 -35 -14 -71 -70 -177 -38 -73 -70 -139 -70 -148 0 -36 -22 -22 -50 33
-54 108 -51 119 98 390 l36 65 28 -60 c17 -36 28 -76 28 -103z m96 -143 c10
-31 13 -60 8 -80 -6 -30 -151 -308 -160 -308 -11 0 -46 89 -51 131 -6 47 -2
58 73 204 l78 154 18 -27 c10 -15 25 -48 34 -74z m-265 -265 c91 -176 114
-213 123 -201 7 9 59 106 116 217 l105 201 183 0 183 0 -3 -62 c-3 -62 -3 -62
-37 -69 -18 -4 -37 -13 -42 -21 -5 -7 -9 -142 -9 -299 0 -309 1 -313 55 -327
29 -8 30 -10 35 -81 l5 -72 104 -40 c102 -38 197 -86 188 -95 -2 -3 -53 4
-113 15 -245 44 -403 56 -759 56 -379 0 -510 -11 -793 -66 -57 -12 -106 -18
-109 -16 -8 9 118 73 210 108 l87 32 0 79 c0 73 1 78 22 78 12 0 30 7 40 17
17 15 18 38 18 305 0 180 -4 297 -10 309 -7 12 -21 19 -40 19 l-30 0 0 65 0
65 179 0 180 0 112 -217z"/>
<path d="M680 842 c0 -227 0 -226 57 -241 24 -6 28 -13 31 -47 l3 -39 199 3
200 3 0 39 c0 36 3 40 24 40 53 0 56 14 56 240 0 164 -3 208 -12 204 -7 -3
-69 -102 -138 -220 -69 -118 -129 -213 -135 -211 -5 2 -67 100 -136 217 -70
118 -132 216 -138 218 -8 3 -11 -55 -11 -206z"/>
</g>
</svg>
